<?xml version="1.0" standalone="no"?>
<!DOCTYPE svg PUBLIC "-//W3C//DTD SVG 20010904//EN"
 "http://www.w3.org/TR/2001/REC-SVG-20010904/DTD/svg10.dtd">
<svg version="1.0" xmlns="http://www.w3.org/2000/svg"
 width="1136.000000pt" height="1136.000000pt" viewBox="0 0 1136.000000 1136.000000"
 preserveAspectRatio="xMidYMid meet">
<metadata>
Created by potrace 1.11, written by Peter Selinger 2001-2013
</metadata>
<g transform="translate(0.000000,1136.000000) scale(0.100000,-0.100000)"
fill="#000000" stroke="none">
<path d="M5475 9324 c-180 -15 -391 -58 -535 -110 -153 -55 -315 -152 -372
-224 -16 -20 -99 -64 -278 -148 -666 -313 -3489 -1646 -3543 -1674 -302 -152
-539 -457 -596 -768 -5 -30 -13 -253 -16 -495 -4 -242 -10 -605 -15 -806 -9
-404 -4 -474 44 -568 55 -110 112 -173 206 -228 19 -12 593 -284 1275 -606
682 -322 1647 -777 2145 -1012 1088 -514 1109 -524 1246 -568 187 -61 304 -79
530 -84 272 -7 458 22 694 109 77 28 4363 2014 4555 2110 153 77 250 172 319
312 66 135 67 140 77 691 5 275 14 608 20 740 17 359 16 373 -9 421 -34 66
-116 148 -202 203 -43 28 -573 292 -1177 587 -604 294 -1181 577 -1282 627
l-184 92 -23 59 c-87 225 -454 401 -924 446 l-115 10 -221 107 -222 107 -5 47
c-3 27 -12 58 -20 71 -8 13 -18 39 -21 59 -9 52 -73 146 -139 205 -147 131
-423 235 -727 274 -90 12 -401 21 -485 14z m128 -204 c-3 -24 -1 -46 6 -54 16
-19 6 -23 -64 -27 -51 -3 -65 0 -89 19 -16 12 -39 22 -51 22 -29 0 -71 -33
-79 -62 -4 -16 -25 -31 -67 -50 -57 -26 -62 -27 -91 -12 -87 45 -162 -66 -89
-134 15 -15 31 -40 35 -56 4 -16 22 -44 40 -62 28 -28 30 -34 19 -50 -7 -10
-13 -31 -13 -48 0 -71 96 -105 139 -50 12 15 21 33 21 40 0 11 9 10 48 -1 91
-26 200 -37 326 -33 l126 4 0 -24 c0 -31 46 -72 82 -72 18 0 39 10 55 26 22
22 25 32 20 70 -3 31 -1 44 8 44 22 0 131 59 154 84 23 24 25 24 53 10 75 -39
149 40 108 116 -12 22 -61 40 -88 33 -14 -3 -26 4 -41 25 -48 67 -188 130
-341 153 -47 7 -87 14 -89 15 -2 2 2 10 9 19 8 9 11 30 7 55 -5 38 -4 40 21
40 33 0 286 -31 291 -35 1 -2 -4 -14 -13 -27 -23 -33 -20 -75 9 -103 51 -52
135 -15 135 60 0 19 4 35 8 35 11 0 133 -42 189 -65 l41 -17 -5 -52 c-5 -49
-3 -54 22 -74 35 -28 75 -28 110 0 l28 22 23 -30 c59 -72 69 -142 31 -209 -22
-39 -23 -40 -73 -37 -46 3 -53 1 -73 -25 -15 -18 -21 -37 -18 -56 5 -34 -3
-40 -100 -82 -66 -29 -80 -32 -93 -21 -44 39 -109 25 -134 -29 -15 -31 -20
-34 -103 -49 -144 -26 -329 -39 -478 -33 -100 4 -141 9 -144 18 -2 7 -14 23
-27 36 -31 31 -83 31 -113 -1 l-22 -24 -91 20 c-110 24 -141 35 -134 47 9 13
-12 62 -32 77 -25 20 -76 17 -104 -6 -25 -19 -25 -19 -64 2 -109 58 -184 135
-204 210 -17 61 4 113 75 184 141 143 499 256 827 263 l66 1 -5 -40z m-976
-834 c4 -3 1 -12 -5 -18 -20 -20 -14 -79 10 -105 50 -53 144 -9 136 63 -2 19
-2 34 1 34 14 0 201 -74 201 -80 0 -4 -7 -13 -15 -20 -8 -7 -15 -28 -15 -48 0
-49 32 -82 80 -82 44 0 70 25 79 74 l6 33 155 -55 c85 -30 157 -57 159 -59 3
-2 -5 -13 -17 -26 -30 -32 -29 -81 3 -112 52 -52 135 -15 135 61 0 30 3 35 18
29 9 -4 48 -18 85 -31 37 -13 87 -38 110 -56 23 -17 44 -33 46 -35 2 -2 -4
-12 -14 -23 -26 -29 -25 -85 3 -112 32 -33 88 -30 119 6 l24 28 67 -55 c105
-87 132 -114 247 -247 60 -69 129 -146 153 -172 44 -46 45 -47 38 -99 -7 -48
-37 -120 -68 -162 -13 -17 -15 -17 -46 -1 -28 13 -38 14 -64 3 -53 -22 -69
-97 -27 -135 18 -16 17 -17 -13 -47 -17 -17 -38 -49 -48 -71 -10 -23 -62 -90
-117 -151 l-99 -110 -234 3 c-209 3 -317 -4 -429 -24 -23 -5 -32 -3 -27 4 8
14 -11 62 -32 78 -26 20 -79 17 -102 -6 -28 -28 -34 -63 -16 -98 18 -35 13
-42 -28 -42 -17 -1 -42 -7 -56 -15 -32 -19 -40 -18 -40 0 0 9 -11 27 -25 40
-30 31 -73 32 -109 4 -33 -26 -36 -82 -5 -115 l21 -22 -43 -27 c-24 -15 -56
-35 -71 -46 -37 -26 -44 -24 -52 11 -6 35 -51 60 -92 52 -32 -6 -64 -47 -64
-82 0 -26 42 -80 62 -80 13 0 -113 -97 -186 -144 -31 -20 -56 -40 -56 -46 0
-5 -16 -10 -35 -10 l-35 0 0 -106 c0 -63 -6 -130 -15 -166 -9 -33 -13 -69 -9
-80 5 -15 3 -20 -7 -16 -128 52 -176 69 -236 82 -40 9 -103 23 -140 31 -38 8
-95 15 -127 15 l-60 0 34 25 c19 14 46 25 61 25 43 0 83 40 83 84 0 57 -30 81
-103 80 -55 0 -64 -4 -152 -63 -114 -76 -262 -150 -314 -156 -21 -3 -52 -14
-69 -24 -56 -35 -242 -72 -428 -86 l-88 -7 0 30 c0 36 -32 78 -64 84 -39 8
-82 -16 -95 -52 -6 -18 -8 -36 -5 -41 8 -13 -37 -11 -162 6 -237 34 -514 111
-716 202 -131 58 -168 64 -202 29 -33 -32 -34 -76 -4 -110 22 -24 159 -87 307
-140 40 -14 83 -33 94 -41 12 -8 35 -15 52 -15 16 0 52 -7 79 -15 26 -8 103
-26 169 -40 67 -14 127 -31 136 -38 8 -7 48 -12 100 -12 47 0 135 -1 195 -3
l109 -2 -22 -24 c-40 -42 -22 -136 26 -136 16 0 16 0 -1 -41 -7 -19 -16 -66
-20 -106 -3 -39 -11 -84 -17 -100 -12 -32 -57 -83 -74 -83 -7 0 -83 33 -171
73 l-158 73 -2 38 c-2 73 -84 108 -137 58 l-24 -23 -109 51 c-60 28 -121 63
-135 76 -17 16 -42 27 -65 29 -23 3 -207 82 -444 191 -223 102 -416 190 -429
195 l-24 10 22 22 c46 50 9 137 -59 137 -38 0 -80 -39 -80 -75 0 -14 -3 -25
-7 -24 -5 0 -46 19 -93 42 l-85 42 -85 170 c-105 210 -124 282 -105 404 19
116 20 118 56 113 67 -10 111 49 85 113 -8 18 -24 36 -35 40 l-21 6 20 39 c11
21 52 75 91 119 66 74 83 86 213 155 78 41 173 84 212 95 39 12 120 44 180 72
60 28 219 102 354 164 135 62 520 239 855 395 650 301 733 336 1115 466 229
78 250 84 328 84 45 0 82 -3 82 -6 0 -3 -5 -14 -11 -26 -25 -46 19 -108 76
-108 63 0 100 62 71 118 l-16 31 53 4 c75 7 487 1 494 -7z m2543 -26 c19 0 73
3 120 6 194 13 610 -79 639 -142 12 -28 55 -48 87 -40 25 7 96 -44 151 -107
110 -125 28 -275 -212 -388 -152 -71 -400 -131 -535 -128 -36 1 -92 -4 -125
-11 -48 -10 -95 -11 -233 -1 -96 6 -181 15 -190 21 -10 5 -12 10 -5 10 7 0 21
10 33 22 26 28 26 79 0 103 -11 10 -18 20 -16 22 2 2 32 -4 67 -14 50 -13 103
-17 244 -17 154 -1 192 3 263 22 135 35 237 94 268 154 16 30 15 84 0 120 -6
13 -3 20 10 24 11 4 29 16 42 27 48 44 11 137 -56 137 -36 0 -82 -43 -82 -77
0 -16 -4 -23 -12 -20 -105 44 -147 59 -202 69 -36 7 -66 18 -66 24 0 6 -11 21
-25 34 -35 33 -78 31 -118 -7 -30 -28 -39 -31 -127 -36 -169 -11 -357 -82
-409 -156 -25 -35 -35 -74 -27 -106 11 -41 77 -106 139 -135 l58 -28 -32 -11
c-17 -6 -38 -19 -45 -28 -18 -24 -17 -74 2 -101 18 -27 21 -27 -79 -2 -106 26
-227 70 -227 81 0 5 5 9 10 9 21 0 50 41 50 71 0 41 -14 64 -48 78 -57 24
-121 -29 -108 -90 l6 -30 -31 18 c-53 30 -129 104 -149 144 -60 118 21 240
225 339 55 27 111 52 125 55 24 7 24 7 8 -12 -25 -27 -23 -82 4 -110 47 -50
138 -12 138 57 0 34 -38 80 -66 80 -34 0 -4 13 73 31 101 24 100 24 106 -11
13 -60 83 -91 129 -56 21 15 41 64 32 77 -3 6 -3 17 0 25 5 13 19 15 83 10 43
-3 94 -6 113 -6z m1752 -1077 c159 -75 286 -138 285 -140 -5 -4 -806 27 -835
33 -23 5 -23 5 -5 35 26 46 120 129 194 172 35 20 66 37 69 37 3 0 134 -61
292 -137z m-1545 -129 c42 -8 95 -23 117 -31 91 -35 696 -306 696 -312 0 -5
-267 -148 -771 -412 l-106 -56 -489 217 c-402 179 -490 221 -492 238 -3 19 35
40 286 166 285 142 374 180 469 196 81 13 210 11 290 -6z m1482 -169 c195 -8
356 -17 358 -19 2 -2 -96 -54 -218 -116 l-221 -112 -141 64 c-122 55 -149 71
-204 125 -35 34 -63 66 -63 71 0 5 30 8 68 5 37 -2 226 -10 421 -18z m1135
-211 c204 -97 394 -188 421 -202 l50 -26 -65 -13 c-136 -26 -355 -43 -555 -43
l-205 0 -1 33 c0 17 -8 121 -17 230 -10 110 -13 197 -8 197 5 0 176 -79 380
-176z m-550 59 c13 -106 27 -315 22 -320 -6 -6 -175 22 -251 42 -47 12 -165
59 -220 88 -16 8 15 27 205 123 124 62 228 113 232 113 3 1 9 -20 12 -46z
m-2735 -403 c447 -199 461 -206 466 -235 2 -16 7 -75 11 -129 l6 -99 -78 69
c-242 213 -504 363 -802 460 -81 27 -149 49 -151 51 -5 3 73 93 80 90 4 -1
214 -94 468 -207z m2569 -96 c268 -119 496 -225 507 -235 15 -15 17 -24 10
-46 -9 -24 -51 -48 -300 -174 -308 -154 -372 -177 -515 -186 -83 -6 -193 8
-267 33 -54 19 -764 332 -775 342 -5 5 829 477 850 481 1 1 222 -96 490 -215z
m-3395 91 c205 -31 428 -95 584 -169 l85 -41 -470 -214 -471 -213 -111 56
c-220 113 -446 181 -691 207 l-109 12 283 170 c155 93 300 174 322 179 133 31
415 37 578 13z m4737 -33 c0 -20 -108 -160 -168 -219 -109 -106 -253 -198
-397 -252 -27 -11 -57 -22 -66 -26 -15 -5 -17 8 -21 112 -6 171 -34 215 -174
280 l-59 28 205 6 c211 7 397 26 555 58 106 22 125 24 125 13z m425 -922 c-11
-562 -13 -599 -33 -660 -39 -119 -125 -227 -228 -284 -23 -13 -153 -75 -290
-139 -137 -63 -667 -310 -1179 -547 -511 -238 -1342 -624 -1845 -857 -503
-234 -958 -446 -1010 -470 -348 -163 -545 -213 -852 -213 -183 0 -327 20 -478
65 -152 45 8 -29 -2510 1160 -696 328 -1472 694 -1724 813 -393 186 -466 224
-506 262 -52 51 -86 113 -99 186 -8 41 -2 533 12 941 l2 72 335 -155 c184 -86
421 -195 525 -244 105 -48 1023 -473 2040 -945 1923 -891 1948 -903 2036 -928
195 -56 432 -51 629 13 63 21 265 117 934 445 175 86 371 180 435 209 223 103
1005 486 1011 495 7 12 187 99 1470 708 1000 475 1198 574 1294 644 22 16 40
28 41 26 1 -1 -4 -270 -10 -597z m-2839 294 c487 -217 546 -236 729 -236 203
-1 275 22 622 196 128 64 235 116 238 116 3 0 5 -44 5 -98 l0 -98 -417 -204
-418 -205 -145 1 c-193 2 -254 20 -554 171 -272 136 -498 253 -509 263 -10 9
13 280 23 280 4 0 196 -84 426 -186z m-3265 97 c146 -29 303 -82 437 -146
l112 -54 0 -300 c0 -166 -3 -301 -7 -300 -5 0 -215 104 -468 232 l-460 232
-43 75 -43 75 3 95 c2 52 7 101 12 109 14 21 321 9 457 -18z m2221 -113 c403
-432 587 -599 747 -682 125 -65 181 -133 181 -218 0 -33 -2 -34 -153 -105 -83
-40 -304 -144 -490 -233 -185 -88 -344 -160 -352 -160 -22 0 -178 83 -227 121
-180 139 -325 304 -505 574 -88 133 -181 252 -257 333 -27 29 -47 54 -44 57 6
6 951 453 960 454 3 1 66 -63 140 -141z m-4158 -226 c3 -5 -33 -21 -80 -36
l-84 -27 -24 28 -24 28 61 6 c101 9 146 10 151 1z m5530 -417 c50 -14 92 -27
94 -30 2 -2 -49 -29 -114 -61 -264 -125 -264 -125 -264 -85 0 37 -62 140 -113
188 -29 27 -93 71 -142 96 -50 26 -129 79 -177 118 -87 70 -88 71 -88 115 l0
45 358 -180 c248 -125 384 -188 446 -206z m-2461 51 c43 -55 119 -159 168
-232 200 -300 433 -545 617 -650 17 -10 32 -21 32 -25 0 -4 -284 -145 -336
-166 -8 -3 -13 50 -16 184 -4 170 -6 192 -26 231 -31 58 -65 80 -331 212
l-231 115 0 234 0 234 22 -19 c11 -10 57 -64 101 -118z m-2755 -375 l457 -240
3 -35 c2 -20 1 -36 -2 -36 -11 0 -971 431 -980 440 -4 4 4 25 18 46 14 21 26
44 26 51 0 7 5 13 10 13 6 0 216 -108 468 -239z m1168 -612 c85 -44 154 -82
154 -84 0 -2 -51 19 -112 47 -62 27 -134 59 -160 70 -27 12 -48 27 -48 34 0 8
3 14 6 14 4 0 76 -36 160 -81z m1884 -62 l0 -112 -227 -107 c-126 -59 -248
-114 -273 -123 -178 -63 -373 -58 -547 14 -133 54 -423 185 -419 188 2 3 28
-3 58 -12 105 -30 224 -45 364 -45 253 0 365 30 774 204 135 58 251 105 258
105 9 1 12 -28 12 -112z"/>
<path d="M4812 8793 c-17 -6 -42 -57 -42 -83 0 -33 44 -70 83 -70 72 0 107 95
51 139 -25 20 -63 26 -92 14z"/>
<path d="M5582 8513 c-21 -8 -44 -62 -36 -86 11 -38 45 -67 79 -67 34 0 68 29
79 67 8 26 -16 78 -39 87 -19 7 -64 7 -83 -1z"/>
<path d="M3695 8165 c-53 -52 -18 -135 57 -135 70 0 103 86 53 135 -15 16 -36
25 -55 25 -19 0 -40 -9 -55 -25z"/>
<path d="M4355 8165 c-51 -50 -17 -135 54 -135 49 0 81 32 81 82 0 70 -86 103
-135 53z"/>
<path d="M3429 8067 c-41 -31 -49 -81 -19 -119 55 -70 172 -6 140 76 -18 48
-84 71 -121 43z"/>
<path d="M4087 8060 c-75 -59 -7 -172 81 -134 56 23 66 91 20 134 -28 25 -68
26 -101 0z"/>
<path d="M4740 8000 c-48 -48 -10 -140 58 -140 31 1 54 16 70 47 17 32 15 57
-9 87 -26 33 -88 37 -119 6z"/>
<path d="M3148 7950 c-49 -38 -37 -118 21 -138 98 -34 155 98 64 146 -31 17
-57 15 -85 -8z"/>
<path d="M3805 7945 c-34 -33 -34 -83 0 -115 77 -72 185 41 110 115 -15 16
-36 25 -55 25 -19 0 -40 -9 -55 -25z"/>
<path d="M4461 7884 c-28 -36 -27 -79 4 -109 50 -51 135 -17 135 54 0 76 -94
112 -139 55z"/>
<path d="M5133 7895 c-41 -29 -38 -98 6 -132 40 -31 105 -5 124 49 9 24 -11
76 -33 88 -27 15 -72 12 -97 -5z"/>
<path d="M3529 7831 c-35 -36 -37 -70 -5 -107 50 -58 140 -24 140 52 0 28 -7
42 -28 60 -37 32 -71 30 -107 -5z"/>
<path d="M2865 7775 c-51 -50 -15 -135 58 -135 44 0 77 34 77 81 0 72 -84 106
-135 54z"/>
<path d="M4198 7786 c-60 -45 -30 -145 45 -146 40 0 62 14 77 50 15 35 0 84
-31 100 -25 14 -71 12 -91 -4z"/>
<path d="M4909 7721 c-38 -39 -38 -74 1 -113 26 -25 36 -29 62 -24 61 12 86
58 62 115 -12 29 -47 51 -80 51 -9 0 -29 -13 -45 -29z"/>
<path d="M5535 7738 c-41 -22 -56 -67 -39 -113 9 -23 62 -48 90 -41 75 19 86
117 17 154 -27 15 -42 15 -68 0z"/>
<path d="M2598 7676 c-28 -21 -39 -61 -27 -96 12 -34 35 -50 74 -50 38 0 60
15 75 50 15 35 0 84 -31 100 -25 14 -71 12 -91 -4z"/>
<path d="M3252 7667 c-30 -32 -29 -87 1 -115 50 -47 137 -10 137 58 0 69 -91
107 -138 57z"/>
<path d="M3915 7665 c-53 -52 -18 -135 57 -135 70 0 103 86 53 135 -15 16 -36
25 -55 25 -19 0 -40 -9 -55 -25z"/>
<path d="M4649 7625 c-86 -47 -22 -183 69 -146 52 22 67 83 30 125 -29 32 -66
40 -99 21z"/>
<path d="M5264 7630 c-29 -11 -54 -49 -54 -78 0 -31 52 -82 84 -82 14 0 37 11
52 24 69 59 1 171 -82 136z"/>
<path d="M2315 7555 c-53 -52 -18 -135 56 -135 45 0 79 34 79 79 0 42 -38 81
-80 81 -19 0 -40 -9 -55 -25z"/>
<path d="M2975 7554 c-50 -53 -17 -134 54 -134 51 0 81 29 81 80 0 73 -86 107
-135 54z"/>
<path d="M3649 7567 c-65 -50 -36 -147 44 -147 41 0 63 15 76 50 12 35 7 56
-22 88 -23 24 -72 29 -98 9z"/>
<path d="M5903 7558 c-29 -32 -34 -53 -22 -88 13 -36 36 -50 79 -50 36 0 80
38 80 70 0 75 -90 120 -137 68z"/>
<path d="M4384 7520 c-56 -22 -70 -91 -28 -134 53 -52 134 -17 134 59 0 33
-27 75 -49 75 -5 0 -15 2 -23 4 -7 3 -23 1 -34 -4z"/>
<path d="M2712 7454 c-73 -51 -23 -163 64 -146 13 2 33 16 44 30 58 73 -32
169 -108 116z"/>
<path d="M5029 7457 c-41 -31 -49 -81 -19 -119 55 -70 172 -6 140 76 -18 48
-84 71 -121 43z"/>
<path d="M5625 7445 c-53 -52 -18 -135 56 -135 45 0 79 34 79 79 0 42 -38 81
-80 81 -19 0 -40 -9 -55 -25z"/>
<path d="M2062 7404 c-56 -23 -66 -91 -20 -134 28 -25 68 -26 101 0 75 59 7
172 -81 134z"/>
<path d="M3400 7412 c-62 -19 -82 -103 -34 -141 78 -62 176 34 114 111 -20 26
-53 38 -80 30z"/>
<path d="M4104 7405 c-59 -25 -66 -102 -12 -139 67 -47 152 26 116 100 -18 39
-64 56 -104 39z"/>
<path d="M4748 7340 c-14 -11 -28 -31 -30 -44 -17 -87 95 -137 146 -64 38 54
-4 128 -73 128 -10 0 -30 -9 -43 -20z"/>
<path d="M5348 7330 c-25 -26 -29 -36 -24 -62 12 -59 52 -83 109 -65 34 11 60
58 51 92 -8 32 -49 65 -81 65 -14 0 -38 -13 -55 -30z"/>
<path d="M1823 7285 c-41 -29 -38 -98 6 -132 40 -31 105 -5 124 49 9 24 -11
76 -33 88 -27 15 -72 12 -97 -5z"/>
<path d="M2421 7274 c-28 -36 -27 -79 4 -109 50 -51 135 -15 135 58 0 72 -95
107 -139 51z"/>
<path d="M3085 7275 c-73 -72 28 -178 109 -114 20 16 26 29 26 58 0 74 -83
109 -135 56z"/>
<path d="M3802 7277 c-47 -50 -10 -137 58 -137 69 0 107 91 57 138 -32 30 -87
29 -115 -1z"/>
<path d="M6061 7274 c-28 -36 -27 -79 4 -109 50 -51 135 -17 135 54 0 76 -94
112 -139 55z"/>
<path d="M4485 7238 c-48 -28 -59 -78 -25 -121 26 -33 63 -41 99 -23 32 17 41
34 41 76 0 56 -68 96 -115 68z"/>
<path d="M1542 7167 c-30 -32 -29 -87 1 -115 50 -47 137 -10 137 58 0 69 -91
107 -138 57z"/>
<path d="M2202 7167 c-30 -32 -29 -81 3 -112 72 -73 178 28 114 109 -27 35
-86 36 -117 3z"/>
<path d="M2810 7165 c-48 -51 -13 -135 57 -135 43 0 83 40 83 82 0 69 -92 104
-140 53z"/>
<path d="M5139 7180 c-29 -17 -43 -66 -29 -100 15 -36 37 -50 77 -50 35 1 59
19 72 53 12 31 0 73 -27 93 -20 16 -70 17 -93 4z"/>
<path d="M5797 7178 c-60 -46 -28 -147 46 -148 40 0 62 14 77 50 15 35 0 84
-31 100 -25 14 -72 12 -92 -2z"/>
<path d="M3554 7130 c-28 -11 -54 -48 -54 -77 0 -12 11 -34 24 -49 49 -58 140
-25 140 51 0 57 -58 97 -110 75z"/>
<path d="M4210 7127 c-51 -26 -61 -95 -19 -133 53 -48 148 2 135 70 -12 57
-68 88 -116 63z"/>
<path d="M1265 7055 c-51 -50 -15 -135 58 -135 44 0 77 34 77 81 0 72 -84 106
-135 54z"/>
<path d="M1942 7073 c-7 -3 -19 -18 -28 -35 -30 -57 6 -118 69 -118 41 0 63
15 76 50 24 70 -46 132 -117 103z"/>
<path d="M4852 7057 c-30 -32 -29 -87 1 -115 50 -47 137 -10 137 58 0 69 -91
107 -138 57z"/>
<path d="M5515 7055 c-53 -52 -18 -135 57 -135 70 0 103 86 53 135 -15 16 -36
25 -55 25 -19 0 -40 -9 -55 -25z"/>
<path d="M2570 7023 c-71 -26 -82 -116 -18 -149 58 -30 118 6 118 71 0 30 -30
75 -50 75 -4 0 -14 2 -22 4 -7 3 -20 2 -28 -1z"/>
<path d="M3274 7016 c-68 -30 -57 -135 15 -151 78 -17 131 71 79 129 -30 32
-56 38 -94 22z"/>
<path d="M3941 7019 c-33 -13 -50 -38 -51 -72 0 -62 54 -100 110 -77 36 15 50
37 50 77 0 28 -31 73 -50 73 -4 0 -14 2 -22 4 -7 3 -24 0 -37 -5z"/>
<path d="M1656 6949 c-20 -16 -26 -29 -26 -58 0 -49 32 -81 82 -81 70 0 103
86 53 135 -30 31 -73 32 -109 4z"/>
<path d="M4575 6945 c-51 -50 -17 -135 54 -135 49 0 81 32 81 82 0 70 -86 103
-135 53z"/>
<path d="M1013 6905 c-57 -24 -63 -103 -11 -139 60 -42 141 15 123 87 -13 50
-62 73 -112 52z"/>
<path d="M2350 6913 c-61 -22 -79 -95 -35 -138 50 -51 135 -15 135 58 0 49
-57 95 -100 80z"/>
<path d="M3004 6910 c-46 -18 -69 -85 -41 -121 32 -42 81 -49 121 -18 20 16
26 29 26 60 0 37 -26 79 -49 79 -5 0 -15 2 -23 4 -7 3 -23 1 -34 -4z"/>
<path d="M5321 6909 c-82 -32 -58 -159 29 -159 69 0 107 92 58 137 -30 27 -57
34 -87 22z"/>
<path d="M5984 6910 c-56 -22 -71 -95 -28 -135 54 -50 134 -14 134 60 0 33
-27 75 -49 75 -5 0 -15 2 -23 4 -7 3 -23 1 -34 -4z"/>
<path d="M3653 6848 c-62 -30 -46 -139 22 -149 90 -13 137 94 63 145 -26 18
-53 19 -85 4z"/>
<path d="M4312 6844 c-73 -51 -23 -163 64 -146 13 2 33 16 44 30 58 73 -32
169 -108 116z"/>
<path d="M712 6777 c-47 -50 -10 -137 58 -137 69 0 107 91 57 138 -32 30 -87
29 -115 -1z"/>
<path d="M1371 6774 c-28 -36 -27 -79 4 -109 50 -51 135 -17 135 54 0 76 -94
112 -139 55z"/>
<path d="M2043 6785 c-41 -29 -38 -98 6 -132 39 -30 112 0 125 52 7 29 -15 79
-39 89 -28 11 -70 7 -92 -9z"/>
<path d="M5015 6775 c-68 -67 25 -174 103 -119 32 22 43 57 31 94 -20 55 -91
69 -134 25z"/>
<path d="M5692 6793 c-21 -8 -43 -61 -36 -88 13 -52 86 -82 125 -52 44 34 47
103 6 132 -21 15 -69 19 -95 8z"/>
<path d="M2712 6734 c-35 -24 -44 -59 -28 -98 25 -60 103 -68 140 -14 24 34
19 66 -13 99 -33 32 -65 37 -99 13z"/>
<path d="M3365 6725 c-44 -43 -30 -114 25 -134 97 -33 154 99 63 147 -34 18
-62 14 -88 -13z"/>
<path d="M4045 6738 c-67 -36 -57 -125 18 -151 22 -8 66 8 83 31 22 28 17 80
-11 107 -26 27 -58 31 -90 13z"/>
<path d="M1107 6678 c-21 -17 -38 -63 -30 -85 19 -55 84 -81 124 -50 44 34 47
103 6 132 -26 18 -77 20 -100 3z"/>
<path d="M1762 6667 c-32 -34 -30 -89 4 -116 36 -28 79 -27 109 4 31 30 32 73
4 109 -27 35 -86 36 -117 3z"/>
<path d="M4742 6667 c-30 -32 -29 -87 1 -115 50 -47 137 -10 137 58 0 69 -91
107 -138 57z"/>
<path d="M5402 6667 c-30 -32 -29 -81 3 -112 72 -73 178 28 114 109 -27 35
-86 36 -117 3z"/>
<path d="M2500 6627 c-77 -39 -50 -151 36 -151 41 0 71 26 80 71 5 27 1 37
-24 63 -33 33 -54 37 -92 17z"/>
<path d="M3104 6629 c-23 -12 -44 -49 -44 -78 0 -27 36 -68 65 -75 29 -7 79
15 89 39 11 30 6 73 -11 94 -21 25 -70 35 -99 20z"/>
<path d="M825 6555 c-51 -50 -15 -135 58 -135 44 0 77 34 77 81 0 72 -84 106
-135 54z"/>
<path d="M3759 6570 c-29 -17 -43 -66 -29 -100 41 -99 184 -41 149 60 -6 17
-19 35 -29 40 -23 13 -70 12 -91 0z"/>
<path d="M4465 6555 c-51 -50 -15 -135 58 -135 44 0 77 34 77 81 0 72 -84 106
-135 54z"/>
<path d="M1510 6517 c-60 -30 -64 -99 -8 -140 22 -17 33 -18 60 -11 70 20 81
116 17 149 -34 18 -37 18 -69 2z"/>
<path d="M2225 6518 c-41 -22 -56 -67 -39 -113 9 -23 62 -48 90 -41 75 19 86
117 17 154 -27 15 -42 15 -68 0z"/>
<path d="M2813 6448 c-28 -32 -34 -54 -22 -85 22 -57 91 -72 134 -28 29 28 31
54 10 94 -24 47 -87 57 -122 19z"/>
<path d="M3476 6449 c-20 -16 -26 -29 -26 -58 0 -74 83 -109 135 -56 73 72
-28 178 -109 114z"/>
<path d="M4193 6448 c-29 -32 -34 -53 -22 -88 16 -44 64 -63 114 -44 23 9 48
62 41 90 -15 60 -94 85 -133 42z"/>
<path d="M575 6411 c-29 -12 -44 -33 -51 -69 -5 -26 -1 -36 24 -62 37 -36 71
-39 108 -6 68 58 1 171 -81 137z"/>
<path d="M1233 6405 c-53 -23 -62 -92 -17 -132 74 -67 178 37 112 111 -30 32
-56 38 -95 21z"/>
<path d="M1954 6410 c-28 -11 -54 -48 -54 -78 0 -30 52 -82 82 -82 87 0 113
122 32 156 -18 8 -35 14 -36 13 -2 0 -13 -4 -24 -9z"/>
<path d="M2593 6338 c-29 -32 -34 -53 -22 -88 26 -73 137 -66 154 9 17 78 -80
136 -132 79z"/>
<path d="M3196 6334 c-34 -34 -34 -77 -1 -109 43 -44 114 -30 134 25 28 83
-71 146 -133 84z"/>
<path d="M975 6302 c-63 -13 -86 -92 -40 -137 50 -51 135 -15 135 57 -1 53
-45 91 -95 80z"/>
<path d="M3950 6303 c-61 -22 -79 -95 -35 -138 50 -51 135 -15 135 58 0 49
-57 95 -100 80z"/>
<path d="M1656 6229 c-33 -26 -37 -88 -6 -119 49 -49 140 -10 140 59 0 37 -44
81 -80 81 -15 0 -39 -9 -54 -21z"/>
<path d="M2315 6225 c-34 -33 -34 -83 0 -115 77 -72 185 41 110 115 -15 16
-36 25 -55 25 -19 0 -40 -9 -55 -25z"/>
<path d="M2920 6170 c-49 -49 -10 -140 59 -140 37 0 81 44 81 80 0 15 -9 39
-21 54 -26 33 -88 37 -119 6z"/>
<path d="M3643 6175 c-41 -29 -38 -98 6 -132 40 -31 105 -5 124 49 9 24 -11
76 -33 88 -27 15 -72 12 -97 -5z"/>
<path d="M4307 6178 c-24 -19 -38 -64 -27 -92 18 -48 84 -72 121 -43 44 34 47
103 6 132 -26 18 -77 20 -100 3z"/>
<path d="M735 6129 c-67 -38 -57 -126 18 -152 22 -8 66 8 83 31 19 24 17 76
-3 101 -22 25 -71 35 -98 20z"/>
<path d="M1395 6128 c-63 -36 -57 -123 11 -148 29 -11 81 5 94 30 40 74 -35
158 -105 118z"/>
<path d="M2038 6110 c-25 -26 -29 -36 -24 -63 9 -45 39 -71 81 -71 76 0 109
91 51 140 -37 33 -71 30 -108 -6z"/>
<path d="M2707 6068 c-21 -17 -38 -63 -30 -85 26 -73 115 -87 148 -22 21 40
19 66 -10 94 -27 28 -80 34 -108 13z"/>
<path d="M3362 6057 c-32 -34 -30 -89 4 -116 55 -43 134 -8 134 59 0 69 -91
107 -138 57z"/>
<path d="M4021 6054 c-28 -36 -27 -79 4 -109 50 -51 135 -15 135 58 0 72 -95
107 -139 51z"/>
<path d="M1120 6017 c-32 -16 -52 -59 -44 -91 15 -63 98 -82 140 -32 32 37 30
71 -5 107 -32 32 -53 35 -91 16z"/>
<path d="M1762 5947 c-30 -32 -29 -87 1 -115 50 -47 137 -10 137 58 0 69 -91
107 -138 57z"/>
<path d="M2425 5945 c-51 -50 -15 -135 58 -135 44 0 77 34 77 81 0 72 -84 106
-135 54z"/>
<path d="M3114 5910 c-28 -11 -54 -48 -54 -78 0 -13 14 -37 30 -54 26 -25 36
-29 63 -24 77 15 94 116 26 151 -32 17 -36 17 -65 5z"/>
<path d="M2152 5840 c-30 -28 -36 -62 -18 -98 16 -32 34 -42 71 -42 37 0 55
10 71 42 28 54 -10 118 -71 118 -18 0 -41 -9 -53 -20z"/>
<path d="M2894 5800 c-46 -18 -69 -85 -41 -121 16 -21 51 -39 77 -39 34 0 70
44 70 85 0 33 -27 75 -49 75 -5 0 -15 2 -23 4 -7 3 -23 1 -34 -4z"/>
<path d="M4170 5803 c-62 -23 -80 -96 -34 -138 53 -50 134 -15 134 58 0 31
-29 77 -50 77 -4 0 -14 2 -22 4 -7 3 -20 2 -28 -1z"/>
<path d="M1222 5734 c-35 -24 -44 -59 -28 -98 36 -87 175 -43 152 48 -14 58
-77 83 -124 50z"/>
<path d="M1595 5555 c-68 -67 25 -174 103 -119 32 22 43 57 31 94 -20 55 -91
69 -134 25z"/>
<path d="M2044 5396 c-58 -49 -25 -140 51 -140 76 0 109 91 51 140 -15 13 -38
24 -51 24 -13 0 -36 -11 -51 -24z"/>
<path d="M2445 5298 c-67 -39 -55 -135 19 -154 28 -7 81 18 90 41 17 46 4 91
-35 110 -33 18 -47 18 -74 3z"/>
<path d="M6281 7994 c-61 -78 35 -174 113 -113 33 26 37 88 6 119 -31 31 -93
27 -119 -6z"/>
<path d="M8000 7832 c-33 -34 -38 -66 -14 -100 22 -32 57 -43 94 -31 77 27 64
139 -17 155 -27 5 -37 1 -63 -24z"/>
<path d="M7665 7665 c-51 -50 -15 -135 58 -135 44 0 77 34 77 81 0 72 -84 106
-135 54z"/>
<path d="M10092 6057 c-49 -52 -13 -137 57 -137 68 0 104 78 60 134 -27 35
-86 36 -117 3z"/>
</g>
</svg>
